<?xml version="1.0" standalone="no"?>
<!DOCTYPE svg PUBLIC "-//W3C//DTD SVG 20010904//EN"
 "http://www.w3.org/TR/2001/REC-SVG-20010904/DTD/svg10.dtd">
<svg version="1.0" xmlns="http://www.w3.org/2000/svg"
 width="300.000000pt" height="150.000000pt" viewBox="0 0 300.000000 150.000000"
 preserveAspectRatio="xMidYMid meet">
<metadata>
Created by potrace 1.10, written by Peter Selinger 2001-2011
</metadata>
<g transform="translate(0.000000,150.000000) scale(0.100000,-0.100000)"
fill="#000000" stroke="none">
<path d="M1475 1315 c-48 -147 -60 -175 -74 -170 -112 45 -309 58 -431 29 -36
-8 -126 -44 -200 -79 -74 -35 -162 -71 -195 -81 -74 -21 -196 -21 -253 0 -55
20 -122 68 -147 106 -11 16 -22 30 -25 30 -3 0 -11 -19 -18 -42 l-12 -43 43
-38 c110 -98 267 -125 447 -77 25 6 106 40 180 75 163 78 226 95 344 95 101 0
194 -20 277 -59 l57 -27 33 133 c19 73 36 129 40 125 3 -4 21 -67 40 -139 l34
-133 159 -2 159 -3 -141 -103 -142 -103 66 -131 c36 -71 64 -132 62 -134 -2
-1 -55 33 -118 76 -63 44 -117 80 -120 80 -3 0 -5 -19 -5 -42 l0 -41 206 -136
206 -137 -30 71 c-101 239 -147 349 -147 355 0 5 65 63 145 129 l145 122 111
-3 111 -3 -139 -99 c-76 -55 -139 -101 -141 -102 -2 -1 27 -61 63 -134 36 -73
65 -134 63 -136 -2 -2 -59 35 -126 81 l-122 84 0 -44 0 -45 208 -139 209 -139
-88 206 c-48 114 -89 212 -91 218 -2 6 63 65 144 132 l147 123 113 -3 112 -3
-137 -100 c-75 -54 -137 -102 -137 -106 0 -5 27 -65 60 -135 33 -70 60 -129
60 -131 0 -3 -50 30 -110 72 -61 41 -116 78 -123 80 -9 4 -11 -6 -9 -37 l4
-43 205 -137 c112 -75 202 -131 199 -125 -66 152 -176 413 -176 419 0 4 83 76
185 160 l185 153 -229 3 -229 2 -32 88 c-18 48 -50 139 -73 202 l-41 114 -66
-199 -67 -200 -38 0 -38 0 -73 200 c-40 110 -75 193 -77 185 -3 -8 -33 -100
-67 -203 l-62 -188 -35 3 -35 3 -70 195 c-38 107 -71 196 -72 198 -2 1 -29
-76 -61 -173z m73 20 c9 -17 7 -21 -9 -21 -18 0 -26 25 -12 39 7 8 7 8 21 -18z
m700 -16 c-18 -11 -30 4 -22 26 7 17 8 17 21 -1 10 -14 10 -19 1 -25z m-346
13 c4 -12 -1 -18 -13 -19 -13 -1 -19 5 -19 18 0 24 26 25 32 1z m17 -140 l28
-102 -59 0 c-52 0 -59 2 -54 18 3 9 15 57 27 105 12 48 23 86 25 84 2 -2 17
-49 33 -105z m350 10 c12 -45 24 -89 28 -97 4 -12 -6 -15 -55 -15 l-59 0 26
104 c14 58 29 102 32 98 3 -4 16 -44 28 -90z m-464 -145 c-35 -12 -52 4 -29
27 15 16 18 16 36 -1 19 -17 19 -18 -7 -26z m220 8 c17 -14 18 -17 5 -25 -9
-5 -31 -22 -50 -39 -37 -32 -62 -42 -40 -16 11 13 11 20 0 40 -12 22 -11 28
10 50 24 25 31 24 75 -10z m147 -7 c-5 -5 -21 -6 -36 -2 -26 6 -26 7 -10 25
16 18 18 18 36 2 11 -9 15 -20 10 -25z m198 12 c23 -19 24 -21 7 -31 -10 -6
-33 -24 -51 -40 -38 -33 -52 -37 -38 -12 7 11 6 25 -1 41 -10 21 -8 26 13 43
31 23 39 23 70 -1z m347 -26 c2 -7 -15 -26 -38 -45 -36 -28 -41 -30 -35 -11 4
12 2 30 -3 41 -8 14 -8 21 2 25 20 8 70 2 74 -10z m-211 -188 c-59 -58 -71
-74 -67 -98 3 -21 -20 -4 -25 19 -6 22 -1 31 27 54 19 16 39 29 46 29 6 0 13
3 15 8 3 7 60 51 67 52 2 0 -26 -29 -63 -64z m-361 -10 c-36 -35 -65 -72 -65
-82 0 -16 -2 -15 -17 5 -16 24 -16 25 23 58 21 18 47 35 57 39 9 3 17 10 17
15 0 5 7 9 15 9 8 0 15 5 15 10 0 6 5 10 10 10 6 0 -19 -29 -55 -64z m-354 -4
c-42 -40 -51 -54 -51 -83 l0 -34 -15 29 c-8 15 -15 34 -15 41 0 13 62 65 78
65 5 0 17 9 27 20 10 11 20 18 23 15 3 -2 -18 -26 -47 -53z m43 -326 c16 -35
20 -56 10 -56 -3 0 -20 10 -39 23 -33 22 -34 25 -19 45 21 30 29 28 48 -12z
m351 -6 c20 -44 16 -57 -12 -41 -48 28 -55 38 -41 60 19 31 33 26 53 -19z
m354 0 c24 -50 11 -60 -35 -25 -34 26 -35 28 -18 46 24 27 31 24 53 -21z"/>
<path d="M988 939 c-90 -10 -150 -30 -293 -100 -141 -68 -215 -89 -319 -89
-110 0 -212 47 -261 120 -11 16 -22 30 -25 30 -3 0 -11 -19 -17 -42 -14 -51
-8 -60 71 -112 79 -53 151 -69 270 -63 115 5 189 28 346 108 117 59 198 80
310 80 98 0 191 -19 275 -56 32 -14 60 -24 61 -22 2 2 7 18 10 35 6 30 4 33
-42 53 -114 49 -266 72 -386 58z"/>
<path d="M865 683 c-40 -8 -132 -43 -215 -83 -174 -82 -257 -104 -356 -97 -89
7 -154 36 -218 100 -26 26 -49 47 -50 45 -1 -2 -7 -20 -13 -40 -11 -36 -10
-39 29 -74 22 -20 70 -50 107 -68 61 -29 74 -31 171 -31 129 1 178 14 361 101
163 77 248 98 370 91 86 -6 219 -42 267 -73 28 -19 31 -16 38 28 6 35 6 35
-58 61 -139 55 -295 70 -433 40z"/>
<path d="M1366 195 c-41 -22 -55 -44 -56 -90 0 -51 21 -82 65 -94 47 -13 75
-4 75 24 0 19 -5 22 -37 21 -29 -1 -39 4 -49 22 -16 32 -7 61 23 75 18 8 29 8
44 -1 17 -11 19 -9 19 17 0 21 -6 30 -22 35 -31 8 -29 8 -62 -9z"/>
<path d="M20 174 c0 -21 4 -24 20 -19 19 6 20 2 20 -74 0 -80 0 -81 25 -81 25
0 25 1 25 81 0 76 1 80 20 74 16 -5 20 -2 20 19 0 25 -2 26 -65 26 -63 0 -65
-1 -65 -26z"/>
<path d="M490 105 c0 -95 0 -95 25 -95 22 0 25 4 25 37 l0 38 25 -36 c16 -25
34 -38 55 -41 37 -6 37 -2 -1 42 -20 23 -25 36 -17 39 19 6 28 23 28 53 0 37
-34 58 -92 58 l-48 0 0 -95z m93 41 c6 -16 -11 -36 -30 -36 -7 0 -13 11 -13
25 0 18 5 25 19 25 10 0 21 -6 24 -14z"/>
<path d="M950 105 c0 -92 1 -95 23 -95 21 0 22 3 22 95 0 92 -1 95 -22 95 -22
0 -23 -3 -23 -95z"/>
<path d="M1806 108 c-20 -52 -36 -97 -36 -101 0 -4 11 -7 24 -7 16 0 27 7 31
20 9 28 70 28 85 0 6 -11 21 -20 34 -20 l24 0 -37 98 c-32 85 -40 97 -63 100
-24 3 -28 -3 -62 -90z m79 -15 c5 -20 3 -23 -19 -23 -24 0 -24 2 -14 31 11 32
21 29 33 -8z"/>
<path d="M2270 105 c0 -95 0 -95 25 -95 22 0 25 4 25 38 l0 37 22 -37 c16 -28
28 -37 54 -40 19 -2 34 -3 34 -1 0 1 -14 18 -31 38 l-32 36 22 15 c29 20 28
68 -1 88 -13 9 -43 16 -70 16 l-48 0 0 -95z m85 30 c0 -11 -8 -21 -17 -23 -14
-3 -18 3 -18 23 0 20 4 26 18 23 9 -2 17 -12 17 -23z"/>
<path d="M2740 105 l0 -95 55 0 c49 0 55 2 55 21 0 19 -4 21 -30 15 -25 -5
-30 -2 -30 14 0 16 7 20 30 20 23 0 30 4 30 20 0 16 -7 20 -30 20 -23 0 -30 4
-30 20 0 16 7 20 30 20 23 0 30 4 30 20 0 18 -7 20 -55 20 l-55 0 0 -95z"/>
<path d="M2912 188 c-28 -28 -3 -88 37 -88 10 0 26 9 36 20 27 30 10 74 -30
78 -17 2 -36 -3 -43 -10z m68 -13 c15 -18 10 -45 -12 -59 -35 -22 -74 27 -48
59 16 19 44 19 60 0z"/>
<path d="M2931 153 c1 -23 2 -24 6 -5 2 12 9 22 14 22 6 0 7 -4 4 -10 -3 -5
-2 -18 4 -27 8 -15 10 -13 8 12 -3 41 -38 49 -36 8z"/>
</g>
</svg>
